{
	"patcher" : 	{
		"fileversion" : 1,
		"appversion" : 		{
			"major" : 8,
			"minor" : 1,
			"revision" : 7,
			"architecture" : "x64",
			"modernui" : 1
		}
,
		"classnamespace" : "box",
		"rect" : [ 641.0, 110.0, 640.0, 545.0 ],
		"bglocked" : 0,
		"openinpresentation" : 0,
		"default_fontsize" : 12.0,
		"default_fontface" : 0,
		"default_fontname" : "Arial",
		"gridonopen" : 1,
		"gridsize" : [ 15.0, 15.0 ],
		"gridsnaponopen" : 1,
		"objectsnaponopen" : 1,
		"statusbarvisible" : 2,
		"toolbarvisible" : 1,
		"lefttoolbarpinned" : 0,
		"toptoolbarpinned" : 0,
		"righttoolbarpinned" : 0,
		"bottomtoolbarpinned" : 0,
		"toolbars_unpinned_last_save" : 0,
		"tallnewobj" : 0,
		"boxanimatetime" : 200,
		"enablehscroll" : 1,
		"enablevscroll" : 1,
		"devicewidth" : 0.0,
		"description" : "",
		"digest" : "",
		"tags" : "",
		"style" : "",
		"subpatcher_template" : "",
		"assistshowspatchername" : 0,
		"boxes" : [ 			{
				"box" : 				{
					"fontsize" : 6.136845777480619,
					"id" : "obj-51",
					"maxclass" : "newobj",
					"numinlets" : 2,
					"numoutlets" : 1,
					"outlettype" : [ "int" ],
					"patching_rect" : [ 662.038085460662842, 130.496452967325837, 38.244511604309082, 16.0 ],
					"text" : "% 3."
				}

			}
, 			{
				"box" : 				{
					"fontsize" : 7.96506606317061,
					"format" : 6,
					"id" : "obj-50",
					"maxclass" : "flonum",
					"numinlets" : 1,
					"numoutlets" : 2,
					"outlettype" : [ "", "bang" ],
					"parameter_enable" : 0,
					"patching_rect" : [ 737.234037280082703, 34.078628869056701, 55.244511604309082, 18.0 ]
				}

			}
, 			{
				"box" : 				{
					"fontsize" : 5.244185025411316,
					"id" : "obj-45",
					"maxclass" : "newobj",
					"numinlets" : 2,
					"numoutlets" : 1,
					"outlettype" : [ "float" ],
					"patching_rect" : [ 658.617016673088074, 86.258564221656925, 34.744511604309082, 15.0 ],
					"text" : "f 3."
				}

			}
, 			{
				"box" : 				{
					"fontsize" : 8.804187138410319,
					"id" : "obj-47",
					"maxclass" : "newobj",
					"numinlets" : 2,
					"numoutlets" : 1,
					"outlettype" : [ "bang" ],
					"patching_rect" : [ 658.617016673088074, 33.692272910996088, 68.244511604309082, 19.0 ],
					"text" : "qmetro 20"
				}

			}
, 			{
				"box" : 				{
					"id" : "obj-48",
					"maxclass" : "toggle",
					"numinlets" : 1,
					"numoutlets" : 1,
					"outlettype" : [ "int" ],
					"parameter_enable" : 0,
					"patching_rect" : [ 662.038085460662842, -11.063829600811005, 29.244511604309082, 29.244511604309082 ]
				}

			}
, 			{
				"box" : 				{
					"id" : "obj-36",
					"maxclass" : "newobj",
					"numinlets" : 2,
					"numoutlets" : 1,
					"outlettype" : [ "float" ],
					"patching_rect" : [ 367.021273970603943, 212.765955924987793, 29.5, 22.0 ],
					"text" : "f 3."
				}

			}
, 			{
				"box" : 				{
					"id" : "obj-29",
					"maxclass" : "newobj",
					"numinlets" : 2,
					"numoutlets" : 1,
					"outlettype" : [ "bang" ],
					"patching_rect" : [ 367.021273970603943, 161.887138485908508, 63.0, 22.0 ],
					"text" : "qmetro 20"
				}

			}
, 			{
				"box" : 				{
					"id" : "obj-26",
					"maxclass" : "toggle",
					"numinlets" : 1,
					"numoutlets" : 1,
					"outlettype" : [ "int" ],
					"parameter_enable" : 0,
					"patching_rect" : [ 370.442342758178711, 120.212765097618103, 24.0, 24.0 ]
				}

			}
, 			{
				"box" : 				{
					"id" : "obj-9",
					"maxclass" : "message",
					"numinlets" : 2,
					"numoutlets" : 1,
					"outlettype" : [ "" ],
					"patching_rect" : [ 345.999991655349731, 256.923101425170898, 117.0, 22.0 ],
					"text" : "/source/1/azim++ $1"
				}

			}
, 			{
				"box" : 				{
					"id" : "obj-1",
					"maxclass" : "message",
					"numinlets" : 2,
					"numoutlets" : 1,
					"outlettype" : [ "" ],
					"patching_rect" : [ 751.974920749664307, 329.413043022155762, 129.0, 22.0 ],
					"text" : "/source/1/xyz $1 $2 $3"
				}

			}
, 			{
				"box" : 				{
					"id" : "obj-2",
					"maxclass" : "newobj",
					"numinlets" : 3,
					"numoutlets" : 1,
					"outlettype" : [ "" ],
					"patching_rect" : [ 754.431443214416504, 280.500000476837158, 48.0, 22.0 ],
					"text" : "pak f f f"
				}

			}
, 			{
				"box" : 				{
					"format" : 6,
					"id" : "obj-3",
					"maxclass" : "flonum",
					"numinlets" : 1,
					"numoutlets" : 2,
					"outlettype" : [ "", "bang" ],
					"parameter_enable" : 0,
					"patching_rect" : [ 792.474920749664307, 218.543479919433594, 50.0, 22.0 ]
				}

			}
, 			{
				"box" : 				{
					"format" : 6,
					"id" : "obj-4",
					"maxclass" : "flonum",
					"numinlets" : 1,
					"numoutlets" : 2,
					"outlettype" : [ "", "bang" ],
					"parameter_enable" : 0,
					"patching_rect" : [ 907.692309856414795, 221.804349422454834, 50.0, 22.0 ]
				}

			}
, 			{
				"box" : 				{
					"format" : 6,
					"id" : "obj-5",
					"maxclass" : "flonum",
					"numinlets" : 1,
					"numoutlets" : 2,
					"outlettype" : [ "", "bang" ],
					"parameter_enable" : 0,
					"patching_rect" : [ 701.17057466506958, 221.804349422454834, 50.0, 22.0 ]
				}

			}
, 			{
				"box" : 				{
					"id" : "obj-46",
					"maxclass" : "message",
					"numinlets" : 2,
					"numoutlets" : 1,
					"outlettype" : [ "" ],
					"patching_rect" : [ 569.282597064971924, 266.304342746734619, 131.0, 22.0 ],
					"text" : "/source/1/aed $1 $2 $3"
				}

			}
, 			{
				"box" : 				{
					"id" : "obj-43",
					"maxclass" : "newobj",
					"numinlets" : 3,
					"numoutlets" : 1,
					"outlettype" : [ "" ],
					"patching_rect" : [ 571.739119529724121, 217.391300201416016, 48.0, 22.0 ],
					"text" : "pak f f f"
				}

			}
, 			{
				"box" : 				{
					"format" : 6,
					"id" : "obj-42",
					"maxclass" : "flonum",
					"numinlets" : 1,
					"numoutlets" : 2,
					"outlettype" : [ "", "bang" ],
					"parameter_enable" : 0,
					"patching_rect" : [ 609.782597064971924, 155.434779644012451, 50.0, 22.0 ]
				}

			}
, 			{
				"box" : 				{
					"format" : 6,
					"id" : "obj-40",
					"maxclass" : "flonum",
					"numinlets" : 1,
					"numoutlets" : 2,
					"outlettype" : [ "", "bang" ],
					"parameter_enable" : 0,
					"patching_rect" : [ 724.999986171722412, 158.695649147033691, 50.0, 22.0 ]
				}

			}
, 			{
				"box" : 				{
					"format" : 6,
					"id" : "obj-38",
					"maxclass" : "flonum",
					"numinlets" : 1,
					"numoutlets" : 2,
					"outlettype" : [ "", "bang" ],
					"parameter_enable" : 0,
					"patching_rect" : [ 518.478250980377197, 158.695649147033691, 50.0, 22.0 ]
				}

			}
, 			{
				"box" : 				{
					"id" : "obj-34",
					"maxclass" : "message",
					"numinlets" : 2,
					"numoutlets" : 1,
					"outlettype" : [ "" ],
					"patching_rect" : [ 221.999991655349731, 72.689744066580744, 122.0, 22.0 ],
					"text" : "/source/1/aed -30 0 1"
				}

			}
, 			{
				"box" : 				{
					"id" : "obj-32",
					"maxclass" : "message",
					"numinlets" : 2,
					"numoutlets" : 1,
					"outlettype" : [ "" ],
					"patching_rect" : [ 50.107134512492621, 291.333332896232605, 66.0, 22.0 ],
					"text" : "/hrtf kemar"
				}

			}
, 			{
				"box" : 				{
					"fontsize" : 9.604400233152489,
					"format" : 6,
					"id" : "obj-30",
					"maxclass" : "flonum",
					"numinlets" : 1,
					"numoutlets" : 2,
					"outlettype" : [ "", "bang" ],
					"parameter_enable" : 0,
					"patching_rect" : [ 152.607134512492621, 137.689744066580744, 45.0, 20.0 ]
				}

			}
, 			{
				"box" : 				{
					"fontsize" : 9.076044044044737,
					"id" : "obj-28",
					"maxclass" : "newobj",
					"numinlets" : 1,
					"numoutlets" : 1,
					"outlettype" : [ "" ],
					"patching_rect" : [ 162.999991655349731, 106.000000476837158, 34.0, 19.0 ],
					"text" : "dbtoa"
				}

			}
, 			{
				"box" : 				{
					"fontsize" : 9.604400233152523,
					"format" : 6,
					"id" : "obj-27",
					"maxclass" : "flonum",
					"numinlets" : 1,
					"numoutlets" : 2,
					"outlettype" : [ "", "bang" ],
					"parameter_enable" : 0,
					"patching_rect" : [ 162.999991655349731, 72.689744066580744, 45.0, 20.0 ]
				}

			}
, 			{
				"box" : 				{
					"id" : "obj-24",
					"maxclass" : "newobj",
					"numinlets" : 2,
					"numoutlets" : 1,
					"outlettype" : [ "signal" ],
					"patching_rect" : [ 51.999991655349731, 137.689744066580744, 30.0, 22.0 ],
					"text" : "*~ 1"
				}

			}
, 			{
				"box" : 				{
					"id" : "obj-23",
					"maxclass" : "newobj",
					"numinlets" : 8,
					"numoutlets" : 3,
					"outlettype" : [ "signal", "signal", "" ],
					"patching_rect" : [ 50.107134512492621, 384.000000476837158, 203.0, 22.0 ],
					"saved_object_attributes" : 					{
						"parameter_enable" : 0
					}
,
					"text" : "spat5.virtualspeakers~ @speakers 8"
				}

			}
, 			{
				"box" : 				{
					"channels" : 8,
					"id" : "obj-22",
					"lastchannelcount" : 0,
					"maxclass" : "live.gain~",
					"numinlets" : 8,
					"numoutlets" : 11,
					"outlettype" : [ "signal", "signal", "signal", "signal", "signal", "signal", "signal", "signal", "", "float", "list" ],
					"parameter_enable" : 1,
					"patching_rect" : [ 50.107134512492621, 225.000000476837158, 233.0, 133.0 ],
					"saved_attribute_attributes" : 					{
						"valueof" : 						{
							"parameter_longname" : "live.gain~[1]",
							"parameter_mmax" : 6.0,
							"parameter_mmin" : -70.0,
							"parameter_shortname" : "Speaker",
							"parameter_type" : 0,
							"parameter_unitstyle" : 4
						}

					}
,
					"varname" : "live.gain~[1]"
				}

			}
, 			{
				"box" : 				{
					"id" : "obj-21",
					"linecount" : 2,
					"maxclass" : "newobj",
					"numinlets" : 2,
					"numoutlets" : 9,
					"outlettype" : [ "signal", "signal", "signal", "signal", "signal", "signal", "signal", "signal", "" ],
					"patching_rect" : [ 51.999991655349731, 179.000000476837158, 256.0, 36.0 ],
					"saved_object_attributes" : 					{
						"parameter_enable" : 0
					}
,
					"text" : "spat5.spat~ @inputs 2 @outputs 8 @rooms 1 @initwith \"/panning/type angular\""
				}

			}
, 			{
				"box" : 				{
					"id" : "obj-17",
					"maxclass" : "newobj",
					"numinlets" : 1,
					"numoutlets" : 1,
					"outlettype" : [ "bang" ],
					"patching_rect" : [ 345.999991655349731, 38.000000476837158, 58.0, 22.0 ],
					"text" : "loadbang"
				}

			}
, 			{
				"box" : 				{
					"id" : "obj-16",
					"maxclass" : "message",
					"numinlets" : 2,
					"numoutlets" : 1,
					"outlettype" : [ "" ],
					"patching_rect" : [ 345.999991655349731, 90.000000476837158, 209.0, 22.0 ],
					"text" : "/source/number 2, /speaker/number 8"
				}

			}
, 			{
				"box" : 				{
					"id" : "obj-14",
					"maxclass" : "newobj",
					"numinlets" : 1,
					"numoutlets" : 4,
					"outlettype" : [ "", "", "", "" ],
					"patching_rect" : [ 302.360478758811951, 332.428571939468384, 136.0, 22.0 ],
					"saved_object_attributes" : 					{
						"parameter_enable" : 0
					}
,
					"text" : "spat5.oper @internals 8"
				}

			}
, 			{
				"box" : 				{
					"id" : "obj-13",
					"maxclass" : "ezdac~",
					"numinlets" : 2,
					"numoutlets" : 0,
					"patching_rect" : [ 96.999991655349731, 599.000000476837158, 45.0, 45.0 ]
				}

			}
, 			{
				"box" : 				{
					"id" : "obj-12",
					"lastchannelcount" : 0,
					"maxclass" : "live.gain~",
					"numinlets" : 2,
					"numoutlets" : 5,
					"outlettype" : [ "signal", "signal", "", "float", "list" ],
					"parameter_enable" : 1,
					"patching_rect" : [ 93.999991655349731, 436.000000476837158, 48.0, 136.0 ],
					"saved_attribute_attributes" : 					{
						"valueof" : 						{
							"parameter_longname" : "live.gain~",
							"parameter_mmax" : 6.0,
							"parameter_mmin" : -70.0,
							"parameter_shortname" : "Gain",
							"parameter_type" : 0,
							"parameter_unitstyle" : 4
						}

					}
,
					"varname" : "live.gain~"
				}

			}
, 			{
				"box" : 				{
					"basictuning" : 440,
					"clipheight" : 56.0,
					"data" : 					{
						"clips" : [ 							{
								"absolutepath" : "C:\\Users\\kingk\\Downloads\\569843__monosfera__siren-of-the-fire-truck.wav",
								"filename" : "569843__monosfera__siren-of-the-fire-truck.wav",
								"filekind" : "audiofile",
								"id" : "u238000716",
								"selection" : [ 0.0, 1.0 ],
								"loop" : 0,
								"content_state" : 								{

								}

							}
 ]
					}
,
					"followglobaltempo" : 0,
					"formantcorrection" : 0,
					"id" : "obj-11",
					"maxclass" : "playlist~",
					"mode" : "basic",
					"numinlets" : 1,
					"numoutlets" : 5,
					"originallength" : [ 0.0, "ticks" ],
					"originaltempo" : 120.0,
					"outlettype" : [ "signal", "signal", "signal", "", "dictionary" ],
					"parameter_enable" : 0,
					"patching_rect" : [ 51.999991655349731, 20.000000476837158, 150.0, 57.0 ],
					"pitchcorrection" : 0,
					"quality" : "basic",
					"timestretch" : [ 0 ]
				}

			}
 ],
		"lines" : [ 			{
				"patchline" : 				{
					"destination" : [ "obj-14", 0 ],
					"midpoints" : [ 761.474920749664307, 361.413043022155762, 550.335282444953918, 361.413043022155762, 550.335282444953918, 147.869565010070801, 311.860478758811951, 147.869565010070801 ],
					"source" : [ "obj-1", 0 ]
				}

			}
, 			{
				"patchline" : 				{
					"destination" : [ "obj-24", 0 ],
					"source" : [ "obj-11", 0 ]
				}

			}
, 			{
				"patchline" : 				{
					"destination" : [ "obj-13", 1 ],
					"source" : [ "obj-12", 1 ]
				}

			}
, 			{
				"patchline" : 				{
					"destination" : [ "obj-13", 0 ],
					"source" : [ "obj-12", 0 ]
				}

			}
, 			{
				"patchline" : 				{
					"destination" : [ "obj-21", 0 ],
					"source" : [ "obj-14", 0 ]
				}

			}
, 			{
				"patchline" : 				{
					"destination" : [ "obj-14", 0 ],
					"source" : [ "obj-16", 0 ]
				}

			}
, 			{
				"patchline" : 				{
					"destination" : [ "obj-16", 0 ],
					"source" : [ "obj-17", 0 ]
				}

			}
, 			{
				"patchline" : 				{
					"destination" : [ "obj-1", 0 ],
					"source" : [ "obj-2", 0 ]
				}

			}
, 			{
				"patchline" : 				{
					"destination" : [ "obj-22", 7 ],
					"source" : [ "obj-21", 7 ]
				}

			}
, 			{
				"patchline" : 				{
					"destination" : [ "obj-22", 6 ],
					"source" : [ "obj-21", 6 ]
				}

			}
, 			{
				"patchline" : 				{
					"destination" : [ "obj-22", 5 ],
					"source" : [ "obj-21", 5 ]
				}

			}
, 			{
				"patchline" : 				{
					"destination" : [ "obj-22", 4 ],
					"source" : [ "obj-21", 4 ]
				}

			}
, 			{
				"patchline" : 				{
					"destination" : [ "obj-22", 3 ],
					"source" : [ "obj-21", 3 ]
				}

			}
, 			{
				"patchline" : 				{
					"destination" : [ "obj-22", 2 ],
					"source" : [ "obj-21", 2 ]
				}

			}
, 			{
				"patchline" : 				{
					"destination" : [ "obj-22", 1 ],
					"source" : [ "obj-21", 1 ]
				}

			}
, 			{
				"patchline" : 				{
					"destination" : [ "obj-22", 0 ],
					"source" : [ "obj-21", 0 ]
				}

			}
, 			{
				"patchline" : 				{
					"destination" : [ "obj-23", 7 ],
					"source" : [ "obj-22", 7 ]
				}

			}
, 			{
				"patchline" : 				{
					"destination" : [ "obj-23", 6 ],
					"source" : [ "obj-22", 6 ]
				}

			}
, 			{
				"patchline" : 				{
					"destination" : [ "obj-23", 5 ],
					"source" : [ "obj-22", 5 ]
				}

			}
, 			{
				"patchline" : 				{
					"destination" : [ "obj-23", 4 ],
					"source" : [ "obj-22", 4 ]
				}

			}
, 			{
				"patchline" : 				{
					"destination" : [ "obj-23", 3 ],
					"source" : [ "obj-22", 3 ]
				}

			}
, 			{
				"patchline" : 				{
					"destination" : [ "obj-23", 2 ],
					"source" : [ "obj-22", 2 ]
				}

			}
, 			{
				"patchline" : 				{
					"destination" : [ "obj-23", 1 ],
					"source" : [ "obj-22", 1 ]
				}

			}
, 			{
				"patchline" : 				{
					"destination" : [ "obj-23", 0 ],
					"source" : [ "obj-22", 0 ]
				}

			}
, 			{
				"patchline" : 				{
					"destination" : [ "obj-12", 1 ],
					"source" : [ "obj-23", 1 ]
				}

			}
, 			{
				"patchline" : 				{
					"destination" : [ "obj-12", 0 ],
					"source" : [ "obj-23", 0 ]
				}

			}
, 			{
				"patchline" : 				{
					"destination" : [ "obj-21", 0 ],
					"source" : [ "obj-24", 0 ]
				}

			}
, 			{
				"patchline" : 				{
					"destination" : [ "obj-29", 0 ],
					"source" : [ "obj-26", 0 ]
				}

			}
, 			{
				"patchline" : 				{
					"destination" : [ "obj-28", 0 ],
					"source" : [ "obj-27", 0 ]
				}

			}
, 			{
				"patchline" : 				{
					"destination" : [ "obj-30", 0 ],
					"source" : [ "obj-28", 0 ]
				}

			}
, 			{
				"patchline" : 				{
					"destination" : [ "obj-36", 0 ],
					"source" : [ "obj-29", 0 ]
				}

			}
, 			{
				"patchline" : 				{
					"destination" : [ "obj-2", 1 ],
					"source" : [ "obj-3", 0 ]
				}

			}
, 			{
				"patchline" : 				{
					"destination" : [ "obj-24", 1 ],
					"source" : [ "obj-30", 0 ]
				}

			}
, 			{
				"patchline" : 				{
					"destination" : [ "obj-23", 0 ],
					"source" : [ "obj-32", 0 ]
				}

			}
, 			{
				"patchline" : 				{
					"destination" : [ "obj-14", 0 ],
					"source" : [ "obj-34", 0 ]
				}

			}
, 			{
				"patchline" : 				{
					"destination" : [ "obj-9", 0 ],
					"source" : [ "obj-36", 0 ]
				}

			}
, 			{
				"patchline" : 				{
					"destination" : [ "obj-43", 0 ],
					"source" : [ "obj-38", 0 ]
				}

			}
, 			{
				"patchline" : 				{
					"destination" : [ "obj-2", 2 ],
					"source" : [ "obj-4", 0 ]
				}

			}
, 			{
				"patchline" : 				{
					"destination" : [ "obj-43", 2 ],
					"source" : [ "obj-40", 0 ]
				}

			}
, 			{
				"patchline" : 				{
					"destination" : [ "obj-43", 1 ],
					"source" : [ "obj-42", 0 ]
				}

			}
, 			{
				"patchline" : 				{
					"destination" : [ "obj-46", 0 ],
					"source" : [ "obj-43", 0 ]
				}

			}
, 			{
				"patchline" : 				{
					"destination" : [ "obj-51", 0 ],
					"source" : [ "obj-45", 0 ]
				}

			}
, 			{
				"patchline" : 				{
					"destination" : [ "obj-14", 0 ],
					"midpoints" : [ 578.782597064971924, 298.304342746734619, 458.989120602607727, 298.304342746734619, 458.989120602607727, 147.869565010070801, 311.860478758811951, 147.869565010070801 ],
					"source" : [ "obj-46", 0 ]
				}

			}
, 			{
				"patchline" : 				{
					"destination" : [ "obj-45", 0 ],
					"source" : [ "obj-47", 0 ]
				}

			}
, 			{
				"patchline" : 				{
					"destination" : [ "obj-47", 0 ],
					"source" : [ "obj-48", 0 ]
				}

			}
, 			{
				"patchline" : 				{
					"destination" : [ "obj-2", 0 ],
					"source" : [ "obj-5", 0 ]
				}

			}
, 			{
				"patchline" : 				{
					"destination" : [ "obj-45", 1 ],
					"source" : [ "obj-50", 0 ]
				}

			}
, 			{
				"patchline" : 				{
					"destination" : [ "obj-14", 0 ],
					"source" : [ "obj-9", 0 ]
				}

			}
 ],
		"parameters" : 		{
			"obj-12" : [ "live.gain~", "Gain", 0 ],
			"obj-22" : [ "live.gain~[1]", "Speaker", 0 ],
			"parameterbanks" : 			{

			}
,
			"inherited_shortname" : 1
		}
,
		"dependency_cache" : [ 			{
				"name" : "569843__monosfera__siren-of-the-fire-truck.wav",
				"bootpath" : "~/Downloads",
				"type" : "WAVE",
				"implicit" : 1
			}
, 			{
				"name" : "spat5.oper.mxe64",
				"type" : "mx64"
			}
, 			{
				"name" : "spat5.spat~.mxe64",
				"type" : "mx64"
			}
, 			{
				"name" : "spat5.virtualspeakers~.mxe64",
				"type" : "mx64"
			}
 ],
		"autosave" : 0
	}

}
